<svg width="1231" height="528" viewBox="0 0 1231 528" fill="none" xmlns="http://www.w3.org/2000/svg">
<g clip-path="url(#clip0_14_8)">
<path d="M904.214 519.107L912.136 516.067L909.095 508.145" stroke="#6109D1" stroke-opacity="0.07" stroke-width="2" stroke-linecap="round" stroke-linejoin="round"/>
<path d="M901.786 504.891L893.865 507.932L896.905 515.853" stroke="#6109D1" stroke-opacity="0.07" stroke-width="2" stroke-linecap="round" stroke-linejoin="round"/>
</g>
<g clip-path="url(#clip1_14_8)">
<path d="M17.0571 268.952L24.9788 265.911L21.938 257.989" stroke="#6109D1" stroke-opacity="0.07" stroke-width="2" stroke-linecap="round" stroke-linejoin="round"/>
<path d="M14.6297 254.735L6.70802 257.776L9.74887 265.698" stroke="#6109D1" stroke-opacity="0.07" stroke-width="2" stroke-linecap="round" stroke-linejoin="round"/>
</g>
<path d="M950 72C951.657 72 953 70.6569 953 69C953 67.3431 951.657 66 950 66C948.343 66 947 67.3431 947 69C947 70.6569 948.343 72 950 72Z" stroke="#6109D1" stroke-opacity="0.07" stroke-width="2" stroke-linecap="round" stroke-linejoin="round"/>
<path d="M938 60C939.657 60 941 58.6569 941 57C941 55.3431 939.657 54 938 54C936.343 54 935 55.3431 935 57C935 58.6569 936.343 60 938 60Z" stroke="#6109D1" stroke-opacity="0.07" stroke-width="2" stroke-linecap="round" stroke-linejoin="round"/>
<path d="M938 72V60C938 62.3869 938.948 64.6761 940.636 66.364C942.324 68.0518 944.613 69 947 69" stroke="#6109D1" stroke-opacity="0.07" stroke-width="2" stroke-linecap="round" stroke-linejoin="round"/>
<path d="M531 150C532.657 150 534 148.657 534 147C534 145.343 532.657 144 531 144C529.343 144 528 145.343 528 147C528 148.657 529.343 150 531 150Z" stroke="#6109D1" stroke-opacity="0.07" stroke-width="2" stroke-linecap="round" stroke-linejoin="round"/>
<path d="M519 138C520.657 138 522 136.657 522 135C522 133.343 520.657 132 519 132C517.343 132 516 133.343 516 135C516 136.657 517.343 138 519 138Z" stroke="#6109D1" stroke-opacity="0.07" stroke-width="2" stroke-linecap="round" stroke-linejoin="round"/>
<path d="M519 150V138C519 140.387 519.948 142.676 521.636 144.364C523.324 146.052 525.613 147 528 147" stroke="#6109D1" stroke-opacity="0.07" stroke-width="2" stroke-linecap="round" stroke-linejoin="round"/>
<path d="M341 21C342.657 21 344 19.6569 344 18C344 16.3431 342.657 15 341 15C339.343 15 338 16.3431 338 18C338 19.6569 339.343 21 341 21Z" stroke="#6109D1" stroke-opacity="0.07" stroke-width="2" stroke-linecap="round" stroke-linejoin="round"/>
<path d="M329 9C330.657 9 332 7.65685 332 6C332 4.34315 330.657 3 329 3C327.343 3 326 4.34315 326 6C326 7.65685 327.343 9 329 9Z" stroke="#6109D1" stroke-opacity="0.07" stroke-width="2" stroke-linecap="round" stroke-linejoin="round"/>
<path d="M329 21V9C329 11.3869 329.948 13.6761 331.636 15.364C333.324 17.0518 335.613 18 338 18" stroke="#6109D1" stroke-opacity="0.07" stroke-width="2" stroke-linecap="round" stroke-linejoin="round"/>
<path d="M1211 279L1217 273L1211 267" stroke="#6109D1" stroke-opacity="0.07" stroke-width="2" stroke-linecap="round" stroke-linejoin="round"/>
<path d="M1219 281H1227" stroke="#6109D1" stroke-opacity="0.07" stroke-width="2" stroke-linecap="round" stroke-linejoin="round"/>
<path d="M118 68L124 62L118 56" stroke="#6109D1" stroke-opacity="0.07" stroke-width="2" stroke-linecap="round" stroke-linejoin="round"/>
<path d="M126 70H134" stroke="#6109D1" stroke-opacity="0.07" stroke-width="2" stroke-linecap="round" stroke-linejoin="round"/>
<g clip-path="url(#clip2_14_8)">
<path d="M577.384 403.505C578.873 402.779 579.492 400.983 578.765 399.494C578.039 398.004 576.243 397.386 574.754 398.112C573.265 398.839 572.646 400.635 573.373 402.124C574.099 403.613 575.895 404.231 577.384 403.505Z" stroke="#6109D1" stroke-opacity="0.07" stroke-width="2" stroke-linecap="round" stroke-linejoin="round"/>
<path d="M561.338 397.98C562.827 397.254 563.446 395.458 562.719 393.968C561.993 392.479 560.197 391.861 558.708 392.587C557.219 393.313 556.6 395.109 557.327 396.599C558.053 398.088 559.849 398.706 561.338 397.98Z" stroke="#6109D1" stroke-opacity="0.07" stroke-width="2" stroke-linecap="round" stroke-linejoin="round"/>
<path d="M566.315 392.215L569.011 390.9C569.488 390.667 570.037 390.634 570.539 390.806C571.04 390.979 571.453 391.344 571.685 391.821L574.754 398.112" stroke="#6109D1" stroke-opacity="0.07" stroke-width="2" stroke-linecap="round" stroke-linejoin="round"/>
<path d="M561.338 397.98L566.598 408.765" stroke="#6109D1" stroke-opacity="0.07" stroke-width="2" stroke-linecap="round" stroke-linejoin="round"/>
</g>
<g clip-path="url(#clip3_14_8)">
<path d="M209.384 444.505C210.873 443.779 211.492 441.983 210.765 440.494C210.039 439.004 208.243 438.386 206.754 439.112C205.265 439.839 204.646 441.635 205.373 443.124C206.099 444.613 207.895 445.231 209.384 444.505Z" stroke="#6109D1" stroke-opacity="0.07" stroke-width="2" stroke-linecap="round" stroke-linejoin="round"/>
<path d="M193.338 438.98C194.827 438.254 195.446 436.458 194.719 434.968C193.993 433.479 192.197 432.861 190.708 433.587C189.219 434.313 188.6 436.109 189.327 437.599C190.053 439.088 191.849 439.706 193.338 438.98Z" stroke="#6109D1" stroke-opacity="0.07" stroke-width="2" stroke-linecap="round" stroke-linejoin="round"/>
<path d="M198.315 433.215L201.011 431.9C201.488 431.667 202.037 431.634 202.539 431.806C203.04 431.979 203.453 432.344 203.685 432.821L206.754 439.112" stroke="#6109D1" stroke-opacity="0.07" stroke-width="2" stroke-linecap="round" stroke-linejoin="round"/>
<path d="M193.338 438.98L198.599 449.765" stroke="#6109D1" stroke-opacity="0.07" stroke-width="2" stroke-linecap="round" stroke-linejoin="round"/>
</g>
<defs>
<clipPath id="clip0_14_8">
<rect width="24" height="24" fill="white" transform="translate(896.918 496.156) rotate(24)"/>
</clipPath>
<clipPath id="clip1_14_8">
<rect width="24" height="24" fill="white" transform="translate(9.76172 246) rotate(24)"/>
</clipPath>
<clipPath id="clip2_14_8">
<rect width="24" height="24" fill="white" transform="translate(552 392.521) rotate(-26)"/>
</clipPath>
<clipPath id="clip3_14_8">
<rect width="24" height="24" fill="white" transform="translate(184 433.521) rotate(-26)"/>
</clipPath>
</defs>
</svg>
