<svg width="18" height="20" viewBox="0 0 18 20" fill="none" xmlns="http://www.w3.org/2000/svg">
<path d="M12.4872 18.2791V15.1037C12.518 14.7125 12.4651 14.3192 12.3321 13.9499C12.1991 13.5807 11.9891 13.244 11.7159 12.9622C14.2923 12.675 17 11.6986 17 7.21861C16.9998 6.07303 16.5591 4.97139 15.7692 4.14168C16.1433 3.13943 16.1168 2.03161 15.6954 1.04835C15.6954 1.04835 14.7272 0.761172 12.4872 2.26271C10.6066 1.75303 8.6242 1.75303 6.74359 2.26271C4.50359 0.761172 3.53538 1.04835 3.53538 1.04835C3.11395 2.03161 3.0875 3.13943 3.46154 4.14168C2.66575 4.97754 2.22463 6.08914 2.23077 7.24322C2.23077 11.6904 4.93846 12.6668 7.51487 12.9868C7.24492 13.2658 7.03673 13.5984 6.90384 13.9632C6.77096 14.3279 6.71636 14.7165 6.74359 15.1037V18.2791M6.74359 15.8176C2.64103 17.0483 2.64103 13.7663 1 13.356L6.74359 15.8176Z" stroke="#202020" stroke-width="1.64103" stroke-linecap="round" stroke-linejoin="round"/>
</svg>
