<svg width="20" height="19" viewBox="0 0 20 19" fill="none" xmlns="http://www.w3.org/2000/svg">
<path d="M13.1705 6.21582C14.5538 6.21582 15.8805 6.76535 16.8587 7.74352C17.8369 8.7217 18.3864 10.0484 18.3864 11.4317V17.517H14.9091V11.4317C14.9091 10.9706 14.726 10.5284 14.3999 10.2023C14.0738 9.87627 13.6316 9.69309 13.1705 9.69309C12.7094 9.69309 12.2672 9.87627 11.9411 10.2023C11.615 10.5284 11.4319 10.9706 11.4319 11.4317V17.517H7.95459V11.4317C7.95459 10.0484 8.50412 8.7217 9.48229 7.74352C10.4605 6.76535 11.7872 6.21582 13.1705 6.21582V6.21582Z" stroke="#202020" stroke-width="1.73864" stroke-linecap="round" stroke-linejoin="round"/>
<path d="M4.47727 7.08545H1V17.5173H4.47727V7.08545Z" stroke="#202020" stroke-width="1.73864" stroke-linecap="round" stroke-linejoin="round"/>
<path d="M2.73864 4.47727C3.69886 4.47727 4.47727 3.69886 4.47727 2.73864C4.47727 1.77841 3.69886 1 2.73864 1C1.77841 1 1 1.77841 1 2.73864C1 3.69886 1.77841 4.47727 2.73864 4.47727Z" stroke="#202020" stroke-width="1.73864" stroke-linecap="round" stroke-linejoin="round"/>
</svg>
