<svg width="23" height="19" viewBox="0 0 23 19" fill="none" xmlns="http://www.w3.org/2000/svg">
<path d="M21.1799 1.00922C20.3015 1.62882 19.329 2.10271 18.2997 2.41264C17.7472 1.77745 17.0131 1.32723 16.1964 1.1229C15.3798 0.918561 14.5201 0.969961 13.7336 1.27014C12.9471 1.57033 12.2718 2.10481 11.799 2.80131C11.3262 3.4978 11.0787 4.32271 11.09 5.16445V6.08172C9.47798 6.12352 7.88068 5.76601 6.44033 5.04103C4.99997 4.31605 3.76127 3.24611 2.83454 1.92649C2.83454 1.92649 -0.834537 10.1819 7.42088 13.851C5.53179 15.1333 3.28139 15.7763 1 15.6855C9.25542 20.2719 19.3454 15.6855 19.3454 5.13693C19.3445 4.88143 19.32 4.62656 19.272 4.3756C20.2082 3.45236 20.8688 2.28672 21.1799 1.00922V1.00922Z" stroke="#202020" stroke-width="1.83454" stroke-linecap="round" stroke-linejoin="round"/>
</svg>
